Normalized EMG Linear Envelopes
nRows=54
nColumns=17

endheader
time	        VM	        VL	        RF	       GRA	        TA	   ADDLONG	   SEMIMEM	      BFLH	        GM	        GL	       TFL	   GLUTMAX	   GLUTMED	      PIRI	    OBTINT	        QF	
2.624	  0.076565	  0.108601	  0.422554	  0.090319	  0.117152	  0.033944	  0.032126	  0.027892	  0.014207	  0.010503	  0.183187	  0.034201	  0.141017	  0.220706	  1.627986	  0.105251	
2.6245	  0.076056	  0.107606	  0.416824	  0.089424	  0.115311	  0.033412	  0.033593	  0.028622	  0.014717	  0.010781	  0.180576	  0.034456	  0.139763	  0.219168	  1.607512	  0.105050	
2.625	  0.075551	  0.106601	  0.411094	  0.088562	  0.113495	  0.032888	  0.035116	  0.029400	  0.015243	  0.011075	  0.177962	  0.034725	  0.138532	  0.217650	  1.587160	  0.104863	
2.6255	  0.075051	  0.105589	  0.405365	  0.087734	  0.111702	  0.032373	  0.036696	  0.030225	  0.015785	  0.011383	  0.175346	  0.035007	  0.137324	  0.216151	  1.566937	  0.104692	
2.626	  0.074557	  0.104569	  0.399639	  0.086941	  0.109934	  0.031866	  0.038334	  0.031100	  0.016345	  0.011707	  0.172728	  0.035303	  0.136141	  0.214670	  1.546854	  0.104537	
2.6265	  0.074068	  0.103543	  0.393919	  0.086184	  0.108190	  0.031367	  0.040031	  0.032024	  0.016921	  0.012045	  0.170112	  0.035612	  0.134981	  0.213208	  1.526917	  0.104399	
2.627	  0.073587	  0.102512	  0.388207	  0.085462	  0.106471	  0.030876	  0.041787	  0.033000	  0.017515	  0.012399	  0.167496	  0.035936	  0.133847	  0.211765	  1.507135	  0.104279	
2.6275	  0.073113	  0.101475	  0.382504	  0.084776	  0.104777	  0.030395	  0.043604	  0.034027	  0.018126	  0.012768	  0.164884	  0.036274	  0.132738	  0.210339	  1.487514	  0.104179	
2.628	  0.072647	  0.100435	  0.376813	  0.084128	  0.103107	  0.029922	  0.045482	  0.035106	  0.018755	  0.013152	  0.162275	  0.036626	  0.131656	  0.208932	  1.468062	  0.104099	
2.6285	  0.072190	  0.099391	  0.371137	  0.083518	  0.101462	  0.029458	  0.047423	  0.036240	  0.019402	  0.013552	  0.159672	  0.036992	  0.130600	  0.207542	  1.448784	  0.104039	
2.629	  0.071742	  0.098344	  0.365476	  0.082945	  0.099842	  0.029003	  0.049426	  0.037427	  0.020067	  0.013968	  0.157075	  0.037373	  0.129571	  0.206169	  1.429688	  0.104002	
2.6295	  0.071304	  0.097296	  0.359834	  0.082411	  0.098246	  0.028557	  0.051493	  0.038670	  0.020752	  0.014399	  0.154485	  0.037768	  0.128569	  0.204814	  1.410778	  0.103987	
2.63	  0.070877	  0.096246	  0.354211	  0.081917	  0.096676	  0.028121	  0.053624	  0.039969	  0.021455	  0.014846	  0.151904	  0.038178	  0.127596	  0.203477	  1.392061	  0.103996	
2.6305	  0.070461	  0.095196	  0.348610	  0.081462	  0.095130	  0.027693	  0.055821	  0.041325	  0.022177	  0.015309	  0.149333	  0.038602	  0.126651	  0.202158	  1.373541	  0.104030	
2.631	  0.070057	  0.094146	  0.343033	  0.081047	  0.093610	  0.027275	  0.058084	  0.042739	  0.022918	  0.015787	  0.146772	  0.039041	  0.125735	  0.200857	  1.355222	  0.104088	
2.6315	  0.069665	  0.093097	  0.337481	  0.080673	  0.092114	  0.026867	  0.060413	  0.044211	  0.023679	  0.016282	  0.144222	  0.039495	  0.124848	  0.199573	  1.337110	  0.104173	
2.632	  0.069286	  0.092050	  0.331957	  0.080339	  0.090643	  0.026468	  0.062810	  0.045743	  0.024460	  0.016793	  0.141685	  0.039964	  0.123991	  0.198308	  1.319208	  0.104284	
2.6325	  0.068921	  0.091005	  0.326461	  0.080047	  0.089198	  0.026078	  0.065275	  0.047335	  0.025261	  0.017321	  0.139161	  0.040447	  0.123164	  0.197061	  1.301519	  0.104423	
2.633	  0.068570	  0.089963	  0.320996	  0.079796	  0.087778	  0.025698	  0.067808	  0.048989	  0.026082	  0.017865	  0.136652	  0.040946	  0.122368	  0.195832	  1.284048	  0.104590	
2.6335	  0.068233	  0.088924	  0.315563	  0.079588	  0.086383	  0.025328	  0.070411	  0.050704	  0.026924	  0.018425	  0.134157	  0.041460	  0.121602	  0.194621	  1.266797	  0.104786	
2.634	  0.067912	  0.087890	  0.310163	  0.079422	  0.085014	  0.024968	  0.073085	  0.052482	  0.027787	  0.019002	  0.131679	  0.041988	  0.120867	  0.193430	  1.249769	  0.105012	
2.6345	  0.067607	  0.086861	  0.304799	  0.079298	  0.083670	  0.024617	  0.075828	  0.054324	  0.028671	  0.019595	  0.129217	  0.042532	  0.120163	  0.192257	  1.232966	  0.105268	
2.635	  0.067318	  0.085838	  0.299470	  0.079217	  0.082351	  0.024277	  0.078644	  0.056229	  0.029576	  0.020205	  0.126772	  0.043091	  0.119490	  0.191104	  1.216390	  0.105554	
2.6355	  0.067045	  0.084821	  0.294179	  0.079180	  0.081057	  0.023946	  0.081531	  0.058200	  0.030502	  0.020832	  0.124346	  0.043664	  0.118849	  0.189970	  1.200042	  0.105872	
2.636	  0.066791	  0.083810	  0.288926	  0.079186	  0.079789	  0.023626	  0.084490	  0.060236	  0.031451	  0.021476	  0.121939	  0.044253	  0.118240	  0.188857	  1.183924	  0.106223	
2.6365	  0.066553	  0.082807	  0.283713	  0.079236	  0.078546	  0.023316	  0.087523	  0.062339	  0.032421	  0.022136	  0.119551	  0.044857	  0.117663	  0.187764	  1.168036	  0.106605	
2.637	  0.066335	  0.081811	  0.278540	  0.079329	  0.077329	  0.023016	  0.090628	  0.064509	  0.033414	  0.022814	  0.117183	  0.045476	  0.117118	  0.186691	  1.152380	  0.107021	
2.6375	  0.066135	  0.080824	  0.273408	  0.079467	  0.076136	  0.022726	  0.093808	  0.066747	  0.034429	  0.023508	  0.114837	  0.046109	  0.116606	  0.185640	  1.136956	  0.107471	
2.638	  0.065954	  0.079846	  0.268319	  0.079649	  0.074969	  0.022446	  0.097062	  0.069053	  0.035466	  0.024220	  0.112512	  0.046758	  0.116126	  0.184609	  1.121764	  0.107955	
2.6385	  0.065792	  0.078878	  0.263272	  0.079876	  0.073827	  0.022177	  0.100392	  0.071428	  0.036526	  0.024948	  0.110209	  0.047421	  0.115679	  0.183600	  1.106804	  0.108474	
2.639	  0.065651	  0.077918	  0.258269	  0.080148	  0.072709	  0.021918	  0.103796	  0.073872	  0.037609	  0.025694	  0.107929	  0.048100	  0.115264	  0.182613	  1.092076	  0.109028	
2.6395	  0.065530	  0.076970	  0.253309	  0.080465	  0.071616	  0.021669	  0.107276	  0.076387	  0.038715	  0.026457	  0.105671	  0.048793	  0.114882	  0.181648	  1.077580	  0.109618	
2.64	  0.065429	  0.076031	  0.248395	  0.080826	  0.070548	  0.021431	  0.110832	  0.078973	  0.039845	  0.027237	  0.103437	  0.049501	  0.114532	  0.180705	  1.063315	  0.110244	
2.6405	  0.065350	  0.075104	  0.243526	  0.081233	  0.069505	  0.021204	  0.114464	  0.081630	  0.040997	  0.028034	  0.101227	  0.050224	  0.114216	  0.179784	  1.049280	  0.110907	
2.641	  0.065292	  0.074188	  0.238702	  0.081685	  0.068486	  0.020986	  0.118173	  0.084359	  0.042173	  0.028848	  0.099042	  0.050962	  0.113932	  0.178886	  1.035476	  0.111607	
2.6415	  0.065256	  0.073284	  0.233925	  0.082183	  0.067491	  0.020780	  0.121958	  0.087160	  0.043373	  0.029680	  0.096881	  0.051715	  0.113682	  0.178010	  1.021902	  0.112344	
2.642	  0.065241	  0.072392	  0.229194	  0.082726	  0.066521	  0.020583	  0.125821	  0.090034	  0.044597	  0.030528	  0.094745	  0.052482	  0.113464	  0.177157	  1.008557	  0.113120	
2.6425	  0.065249	  0.071513	  0.224510	  0.083314	  0.065576	  0.020398	  0.129761	  0.092982	  0.045845	  0.031394	  0.092635	  0.053264	  0.113279	  0.176327	  0.995442	  0.113933	
2.643	  0.065280	  0.070646	  0.219873	  0.083948	  0.064655	  0.020223	  0.133778	  0.096003	  0.047117	  0.032277	  0.090550	  0.054061	  0.113126	  0.175520	  0.982555	  0.114785	
2.6435	  0.065333	  0.069792	  0.215284	  0.084628	  0.063759	  0.020058	  0.137873	  0.099098	  0.048413	  0.033177	  0.088492	  0.054872	  0.113007	  0.174736	  0.969895	  0.115676	
2.644	  0.065409	  0.068951	  0.210742	  0.085353	  0.062887	  0.019904	  0.142045	  0.102268	  0.049734	  0.034095	  0.086459	  0.055698	  0.112920	  0.173976	  0.957463	  0.116606	
2.6445	  0.065509	  0.068124	  0.206248	  0.086124	  0.062039	  0.019761	  0.146295	  0.105513	  0.051079	  0.035029	  0.084453	  0.056538	  0.112865	  0.173239	  0.945257	  0.117576	
2.645	  0.065632	  0.067311	  0.201801	  0.086941	  0.061216	  0.019628	  0.150622	  0.108833	  0.052449	  0.035980	  0.082474	  0.057392	  0.112842	  0.172525	  0.933276	  0.118586	
2.6455	  0.065779	  0.066512	  0.197403	  0.087803	  0.060417	  0.019505	  0.155027	  0.112229	  0.053844	  0.036949	  0.080521	  0.058260	  0.112852	  0.171834	  0.921518	  0.119635	
2.646	  0.065949	  0.065727	  0.193053	  0.088710	  0.059642	  0.019393	  0.159509	  0.115700	  0.055263	  0.037934	  0.078596	  0.059143	  0.112893	  0.171166	  0.909982	  0.120725	
2.6465	  0.066144	  0.064957	  0.188751	  0.089664	  0.058891	  0.019292	  0.164068	  0.119247	  0.056708	  0.038936	  0.076698	  0.060039	  0.112966	  0.170521	  0.898665	  0.121856	
2.647	  0.066362	  0.064201	  0.184498	  0.090662	  0.058165	  0.019201	  0.168705	  0.122870	  0.058177	  0.039954	  0.074827	  0.060948	  0.113070	  0.169898	  0.887567	  0.123028	
2.6475	  0.066605	  0.063460	  0.180294	  0.091706	  0.057462	  0.019121	  0.173419	  0.126570	  0.059672	  0.040990	  0.072983	  0.061872	  0.113206	  0.169298	  0.876683	  0.124241	
2.648	  0.066873	  0.062734	  0.176138	  0.092795	  0.056783	  0.019052	  0.178209	  0.130347	  0.061191	  0.042041	  0.071168	  0.062808	  0.113372	  0.168720	  0.866013	  0.125495	
2.6485	  0.067164	  0.062023	  0.172032	  0.093930	  0.056127	  0.018993	  0.183075	  0.134199	  0.062736	  0.043109	  0.069379	  0.063758	  0.113569	  0.168164	  0.855552	  0.126792	
2.649	  0.067481	  0.061327	  0.167975	  0.095109	  0.055496	  0.018944	  0.188017	  0.138129	  0.064306	  0.044194	  0.067618	  0.064721	  0.113796	  0.167629	  0.845299	  0.128130	
2.6495	  0.067822	  0.060647	  0.163967	  0.096334	  0.054888	  0.018907	  0.193035	  0.142135	  0.065902	  0.045294	  0.065885	  0.065697	  0.114053	  0.167116	  0.835249	  0.129511	
2.65	  0.068188	  0.059982	  0.160010	  0.097604	  0.054304	  0.018880	  0.198127	  0.146218	  0.067523	  0.046410	  0.064180	  0.066686	  0.114339	  0.166624	  0.825401	  0.130934	
2.6505	  0.068578	  0.059333	  0.156103	  0.098918	  0.053744	  0.018864	  0.203294	  0.150378	  0.069169	  0.047542	  0.062502	  0.067687	  0.114655	  0.166152	  0.815751	  0.132400	
